<?xml version="1.0" encoding="UTF-8" standalone="no"?>
<svg
   width="128"
   height="128"
   version="1.1"
   id="svg6"
   sodipodi:docname="icon.svg"
   inkscape:version="1.3 (0e150ed6c4, 2023-07-21)"
   xmlns:inkscape="http://www.inkscape.org/namespaces/inkscape"
   xmlns:sodipodi="http://sodipodi.sourceforge.net/DTD/sodipodi-0.dtd"
   xmlns="http://www.w3.org/2000/svg"
   xmlns:svg="http://www.w3.org/2000/svg">
  <defs
     id="defs6" />
  <sodipodi:namedview
     id="namedview6"
     pagecolor="#505050"
     bordercolor="#eeeeee"
     borderopacity="1"
     inkscape:showpageshadow="0"
     inkscape:pageopacity="0"
     inkscape:pagecheckerboard="0"
     inkscape:deskcolor="#505050"
     inkscape:zoom="1.5878906"
     inkscape:cx="-19.207872"
     inkscape:cy="45.658057"
     inkscape:window-width="1920"
     inkscape:window-height="1009"
     inkscape:window-x="1912"
     inkscape:window-y="-8"
     inkscape:window-maximized="1"
     inkscape:current-layer="svg6" />
  <path
     id="path1"
     style="fill:#8da5f3;fill-opacity:1;stroke:none;stroke-width:1.08304;stroke-linecap:square"
     d="m 96.684267,6.5693331 c -1.19658,-0.01133 -2.41431,0.131988 -3.63,0.457539 l -0.53128,0.14808 c -0.9564,0.133651 -1.91084,0.313312 -2.84794,0.545859 -0.92791,0.266923 -1.83546,0.580537 -2.72987,0.944331 L 28.142016,24.424672 c -0.956405,0.133651 -1.896098,0.313463 -2.833176,0.546086 -1.275632,0.342927 -2.520741,0.77465 -3.733303,1.298493 -0.902468,0.34935 -1.754197,0.785115 -2.538057,1.298486 C 8.142166,33.66823 2.770668,46.384453 5.978307,58.45231 8.813885,69.034796 17.494192,76.46562 27.610799,78.269779 a 12.757163,12.757163 0 0 1 10.403059,-5.415491 12.757163,12.757163 0 0 1 7.540389,2.464266 c 5.091081,-2.800546 9.220477,-7.17132 11.686851,-12.557467 l 2.78891,-0.752567 V 41.659819 c 0,-12.344896 15.580632,-14.299122 20.525759,-5.872925 a 5.3654922,5.3654922 0 0 1 3.88086,-4.353065 5.3654922,5.3654922 0 0 1 6.56648,3.792331 5.3654922,5.3654922 0 0 1 -3.79233,6.581233 5.3654922,5.3654922 0 0 1 -5.23842,-1.564109 c 0.0484,0.458143 0.074,0.925655 0.074,1.416648 v 15.464419 c 6.44363,4.130189 14.34523,5.387258 21.780053,3.408681 14.58392,-3.907728 23.23832,-18.89776 19.33051,-33.48165 C 120.26217,16.344402 111.18615,8.4420771 100.18164,7.0568351 99.054597,6.7451861 97.881007,6.5814661 96.684437,6.5698311 Z m -1.78547,10.2407599 a 5.3654922,5.3654922 0 0 1 4.4711,3.92512 5.3654922,5.3654922 0 0 1 -3.79233,6.566478 5.3654922,5.3654922 0 0 1 -6.56648,-3.792316 5.3654922,5.3654922 0 0 1 3.79233,-6.566471 5.3654922,5.3654922 0 0 1 2.09538,-0.131988 z m 14.490503,8.366716 a 5.3654922,5.3654922 0 0 1 4.48586,3.925142 5.3654922,5.3654922 0 0 1 -3.79231,6.581219 5.3654922,5.3654922 0 0 1 -6.58124,-3.807078 5.3654922,5.3654922 0 0 1 3.79233,-6.566471 5.3654922,5.3654922 0 0 1 2.09536,-0.133651 z m -8.36672,14.490516 a 5.3654922,5.3654922 0 0 1 4.48587,3.939891 5.3654922,5.3654922 0 0 1 -3.79233,6.56647 5.3654922,5.3654922 0 0 1 -6.581223,-3.79233 5.3654922,5.3654922 0 0 1 3.79231,-6.581219 5.3654922,5.3654922 0 0 1 2.095373,-0.13365 z M 29.602937,42.58904 c 1.466233,-0.09013 2.835956,0.855143 3.231589,2.331477 l 1.062494,3.969393 3.984155,-1.062486 c 1.687379,-0.452175 3.399207,0.540872 3.851344,2.228168 l 0.57555,2.124882 c 0.452024,1.687394 -0.540872,3.413939 -2.228168,3.866107 l -3.984163,1.062486 1.077143,3.9694 c 0.452175,1.687425 -0.540948,3.414068 -2.228191,3.866107 l -2.124882,0.560667 c -1.687394,0.450739 -3.413969,-0.539437 -3.866106,-2.228169 l -1.062487,-3.969392 -3.9694,1.062486 c -1.68741,0.452326 -3.413954,-0.539739 -3.866092,-2.228168 l -0.560742,-2.124913 c -0.452175,-1.687364 0.540872,-3.399244 2.228168,-3.851366 l 3.969401,-1.062486 -1.062494,-3.984141 c -0.452024,-1.687409 0.540872,-3.399229 2.228183,-3.851351 l 2.124882,-0.575551 c 0.210864,-0.05666 0.41032,-0.09013 0.619824,-0.103052 z" />
  <path
     fill="#8da5f3"
     d="M 78.436227,71.806133 V 41.585718 c 0,-10.073527 -15.110268,-10.073527 -15.110268,0 v 53.26362 L 44.438119,81.250114 C 35.623806,73.066466 23.34671,86.288082 32.161023,94.471668 l 31.164936,30.220582 h 45.330821 c 8.3452,0 15.11031,-6.76516 15.11027,-15.11037 V 86.916564 c 4e-5,-8.345275 -6.76507,-15.110431 -15.11027,-15.110431 z"
     id="path1-2"
     style="stroke-width:7.55514"
     sodipodi:nodetypes="cssccccsccsc" />
</svg>
